<?xml version="1.0" encoding="iso-8859-1"?>
<!-- Generator: Adobe Illustrator 19.0.0, SVG Export Plug-In . SVG Version: 6.00 Build 0)  -->
<svg version="1.1" id="Layer_1" xmlns="http://www.w3.org/2000/svg" xmlns:xlink="http://www.w3.org/1999/xlink" x="0px" y="0px"
	 viewBox="0 0 505 505" style="enable-background:new 0 0 505 505;" xml:space="preserve">
<circle style="fill:#84DBFF;" cx="252.5" cy="252.5" r="252.5"/>
<polygon style="fill:#FFFFFF;" points="388.9,96.9 369.5,77.4 350,96.9 330.5,77.4 311,96.9 291.5,77.4 272,96.9 252.5,77.4 
	233,96.9 233,96.9 213.5,77.4 194,96.9 174.5,77.4 155,96.9 135.5,77.4 116.1,96.9 116.1,408.1 116.1,408.1 116.1,408.1 
	135.5,427.6 155,408.1 155,408.1 155,408.1 155,408.1 174.5,427.6 194,408.1 194,408.1 194,408.1 194,408.1 213.5,427.6 233,408.1 
	233,408.1 233,408.1 233,408.1 252.5,427.6 272,408.1 272,408.1 272,408.1 272,408.1 291.5,427.6 311,408.1 311,408.1 311,408.1 
	311,408.1 330.5,427.6 350,408.1 350,408.1 350,408.1 350,408.1 369.5,427.6 388.9,408.1 388.9,408.1 388.9,408.1 "/>
<g>
	<rect x="129.5" y="166" style="fill:#CED5E0;" width="246.1" height="5"/>
	<rect x="129.5" y="340.3" style="fill:#CED5E0;" width="246.1" height="5"/>
</g>
<g>
	<path style="fill:#FF7058;" d="M198.1,136.9c0,4-1.6,6.5-4.7,7.7l6.3,8.9h-6.8l-5.5-7.9h-3.9v7.9H178v-24.8h9.4
		c3.8,0,6.6,0.6,8.2,1.9C197.3,131.9,198.1,134,198.1,136.9z M191.4,139.9c0.7-0.6,1-1.6,1-2.9c0-1.3-0.4-2.3-1.1-2.7
		c-0.7-0.5-1.9-0.7-3.7-0.7h-4.1v7.3h4C189.4,140.8,190.7,140.5,191.4,139.9z"/>
	<path style="fill:#FF7058;" d="M221.6,128.7v4.9h-12.3v5.1h11.1v4.7h-11.1v5.1H222v4.9h-18.2v-24.8h17.8V128.7z"/>
	<path style="fill:#FF7058;" d="M238.3,148.6c2.7,0,4.9-1.1,6.7-3.2l3.5,3.6c-2.8,3.2-6.1,4.7-9.9,4.7c-3.8,0-7-1.2-9.4-3.6
		c-2.5-2.4-3.7-5.4-3.7-9.1c0-3.7,1.3-6.7,3.8-9.2s5.6-3.7,9.2-3.7c4.1,0,7.5,1.5,10.2,4.6l-3.4,3.9c-1.7-2.2-3.9-3.3-6.5-3.3
		c-2.1,0-3.9,0.7-5.3,2c-1.5,1.4-2.2,3.2-2.2,5.5s0.7,4.1,2.1,5.5C234.6,147.9,236.3,148.6,238.3,148.6z"/>
	<path style="fill:#FF7058;" d="M270.7,128.7v4.9h-12.3v5.1h11.1v4.7h-11.1v5.1h12.7v4.9h-18.2v-24.8h17.8V128.7z"/>
	<path style="fill:#FF7058;" d="M276,128.7h5.5v24.8H276V128.7z"/>
	<path style="fill:#FF7058;" d="M304.6,130.9c1.7,1.5,2.6,3.7,2.6,6.8s-0.9,5.3-2.7,6.7c-1.8,1.4-4.5,2.1-8.2,2.1H293v6.9h-5.5
		v-24.8h8.7C300.1,128.7,302.9,129.4,304.6,130.9z M300.6,140.7c0.7-0.7,1-1.8,1-3.3c0-1.4-0.4-2.4-1.3-3s-2.2-0.9-4-0.9h-3.2v8.3
		h3.7C298.7,141.8,299.9,141.4,300.6,140.7z"/>
	<path style="fill:#FF7058;" d="M322,133.5v20h-5.5v-20h-7v-4.8H329v4.8H322z"/>
</g>
<g>
	<rect x="145.1" y="191.3" style="fill:#E6E9EE;" width="74.3" height="6.7"/>
	<rect x="145.1" y="204.1" style="fill:#E6E9EE;" width="52.8" height="6.7"/>
	<rect x="145.1" y="242.8" style="fill:#E6E9EE;" width="74.3" height="6.7"/>
	<rect x="145.1" y="255.6" style="fill:#E6E9EE;" width="52.8" height="6.7"/>
	<rect x="145.1" y="294.2" style="fill:#E6E9EE;" width="74.3" height="6.7"/>
	<rect x="145.1" y="307" style="fill:#E6E9EE;" width="52.8" height="6.7"/>
	<rect x="329.1" y="191.3" style="fill:#E6E9EE;" width="25.1" height="6.7"/>
	<rect x="329.1" y="242.8" style="fill:#E6E9EE;" width="25.1" height="6.7"/>
	<rect x="329.1" y="294.2" style="fill:#E6E9EE;" width="25.1" height="6.7"/>
</g>
<g>
	<path style="fill:#4CDBC4;" d="M239.5,366v15.1h-4.2V366H230v-3.6h14.8v3.6H239.5z"/>
	<path style="fill:#4CDBC4;" d="M263.1,378.6c-1.9,1.8-4.2,2.8-7,2.8s-5.1-0.9-7-2.8s-2.8-4.2-2.8-6.9c0-2.8,0.9-5,2.8-6.9
		c1.9-1.8,4.2-2.8,7-2.8s5.1,0.9,7,2.8s2.8,4.1,2.8,6.9C265.9,374.4,264.9,376.7,263.1,378.6z M261.6,371.7c0-1.7-0.5-3.1-1.6-4.3
		c-1.1-1.2-2.4-1.8-3.9-1.8c-1.6,0-2.9,0.6-4,1.8c-1.1,1.2-1.6,2.6-1.6,4.3c0,1.7,0.5,3.1,1.6,4.3c1.1,1.2,2.4,1.8,4,1.8
		s2.9-0.6,3.9-1.8C261.1,374.8,261.6,373.4,261.6,371.7z"/>
	<path style="fill:#4CDBC4;" d="M276.8,366v15.1h-4.2V366h-5.3v-3.6h14.8v3.6H276.8z"/>
	<path style="fill:#4CDBC4;" d="M297.2,381.2l-1.7-4h-7.8l-1.7,4h-4.4l8.1-18.7h4l8.1,18.7H297.2z M291.5,368l-2.4,5.4h4.7
		L291.5,368z"/>
	<path style="fill:#4CDBC4;" d="M303.8,381.2v-18.7h4.2v15h8v3.7H303.8z"/>
</g>
<g>
</g>
<g>
</g>
<g>
</g>
<g>
</g>
<g>
</g>
<g>
</g>
<g>
</g>
<g>
</g>
<g>
</g>
<g>
</g>
<g>
</g>
<g>
</g>
<g>
</g>
<g>
</g>
<g>
</g>
</svg>
