<svg data-v-423bf9ae="" xmlns="http://www.w3.org/2000/svg" viewBox="0 0 308.8868427247151 163" class="iconAbove"><!----><!----><!----><g data-v-423bf9ae="" id="caa4584d-7112-48d1-b475-6f1d2c1ff026" fill="white" transform="matrix(5.519779266944674,0,0,5.519779266944674,-2.7046945145749817,85.77828884198406)"><path d="M2.81 3.63C2.58 3.63 1.23 3.58 0.69 3.58C0.66 3.67 0.63 3.74 0.63 3.79C0.63 3.92 0.69 4.02 0.69 4.02C1.05 4.02 1.34 4.02 1.61 4.09C1.74 4.13 1.76 4.63 1.81 5.49C1.85 6.34 1.86 7.76 1.86 8.82C1.86 10.42 1.79 11.51 1.69 12.25C1.62 12.75 1.53 13.24 0.50 13.47C0.50 13.47 0.49 13.52 0.49 13.58C0.49 13.65 0.50 13.75 0.56 13.82C1.33 13.72 2.31 13.71 2.51 13.71C2.84 13.71 3.71 13.75 4.37 13.75C4.41 13.69 4.41 13.61 4.41 13.55C4.41 13.43 4.37 13.31 4.37 13.31C3.98 13.31 3.51 13.30 3.14 13.22C3.08 12.64 3.04 12.46 3.04 11.37L3.04 9.28C3.40 9.32 3.75 9.34 4.42 9.34C5.08 10.39 7.17 13.99 7.67 13.99C7.90 13.99 8.67 13.80 9.90 13.75C9.91 13.69 9.93 13.61 9.93 13.54C9.93 13.47 9.91 13.37 9.90 13.31C9.62 13.31 9.25 13.31 9.02 13.27C8.50 13.20 7.98 12.56 6.83 10.85C6.34 10.14 5.99 9.55 5.77 9.16C7.01 8.79 7.88 7.90 7.88 6.41C7.88 4.42 6.48 3.63 4.48 3.63ZM4.52 4.07C5.87 4.07 6.66 5.24 6.66 6.59C6.66 7.94 5.66 8.82 4.31 8.82C3.54 8.82 3.21 8.79 3.04 8.78C3.04 7.34 3.04 5.66 3.09 4.97C3.12 4.63 3.14 4.35 3.19 4.13C3.57 4.07 4.02 4.07 4.52 4.07ZM17.54 10.29C17.54 8.22 16.00 6.58 14.04 6.58C11.94 6.92 10.42 7.98 10.42 10.29C10.42 12.40 11.97 13.99 13.93 13.99C16.02 13.65 17.54 12.60 17.54 10.29ZM14.24 13.38C12.61 13.38 11.70 11.56 11.70 9.74C11.70 8.33 12.25 7.17 13.76 7.17C15.39 7.17 16.25 9.00 16.25 10.81C16.25 12.26 15.75 13.38 14.24 13.38ZM25.79 10.29C25.79 8.22 24.25 6.58 22.29 6.58C20.19 6.92 18.66 7.98 18.66 10.29C18.66 12.40 20.22 13.99 22.18 13.99C24.26 13.65 25.79 12.60 25.79 10.29ZM22.48 13.38C20.86 13.38 19.95 11.56 19.95 9.74C19.95 8.33 20.50 7.17 22.01 7.17C23.63 7.17 24.50 9.00 24.50 10.81C24.50 12.26 24.00 13.38 22.48 13.38ZM27.99 9.21C27.99 10.29 27.99 11.82 27.92 12.43C27.86 12.87 27.76 13.27 26.91 13.47C26.91 13.47 26.89 13.52 26.89 13.58C26.89 13.65 26.91 13.75 26.96 13.82C27.65 13.72 28.43 13.71 28.81 13.71C28.99 13.71 29.39 13.75 29.78 13.75C29.82 13.69 29.83 13.61 29.83 13.55C29.83 13.43 29.78 13.31 29.78 13.31C29.55 13.31 29.43 13.31 29.27 13.27C29.15 13.26 29.11 12.14 29.11 11.30C29.11 10.50 29.11 9.55 29.16 8.44C29.69 8.05 30.39 7.55 31.23 7.55C32.30 7.55 32.30 9.16 32.30 10.57C32.30 11.42 32.27 12.14 32.23 12.43C32.17 12.87 32.06 13.27 31.22 13.47C31.22 13.47 31.21 13.54 31.21 13.59C31.21 13.66 31.22 13.75 31.28 13.82C31.96 13.72 32.75 13.71 33.12 13.71C33.35 13.71 33.73 13.75 34.19 13.75C34.23 13.66 34.23 13.59 34.23 13.54C34.23 13.41 34.19 13.31 34.19 13.31C33.87 13.31 33.80 13.31 33.59 13.27C33.42 13.24 33.39 12.35 33.39 10.91C33.39 10.39 33.40 9.28 33.40 9.06C33.40 8.85 33.39 8.62 33.36 8.44C33.91 8.06 34.64 7.55 35.43 7.55C36.50 7.55 36.50 9.16 36.50 10.57C36.50 11.42 36.47 12.14 36.43 12.43C36.37 12.87 36.30 13.27 35.60 13.47C35.60 13.47 35.59 13.52 35.59 13.58C35.59 13.65 35.60 13.75 35.66 13.82C36.27 13.72 36.99 13.71 37.32 13.71C37.55 13.71 38.15 13.75 38.61 13.75C38.65 13.66 38.65 13.59 38.65 13.54C38.65 13.41 38.61 13.31 38.61 13.31C38.29 13.31 38.05 13.31 37.84 13.27C37.72 13.26 37.65 12.35 37.65 10.91C37.65 10.39 37.66 9.28 37.66 9.06C37.66 7.60 37.09 6.58 36.05 6.58C35.03 6.93 34.41 7.21 33.25 7.87C33.03 7.08 32.56 6.58 31.85 6.58C30.83 6.93 30.32 7.17 29.13 7.84C28.98 7.27 28.70 6.58 28.52 6.58C28.36 6.58 27.96 6.89 26.73 7.06C26.73 7.06 26.70 7.14 26.70 7.22C26.70 7.31 26.70 7.38 26.75 7.43C26.92 7.43 27.17 7.42 27.30 7.42C27.99 7.43 27.99 8.26 27.99 9.21ZM41.96 11.06C41.96 10.46 41.97 7.39 42.13 6.52C42.13 6.52 42.08 6.36 41.92 6.36C41.52 6.55 41.30 6.66 40.84 6.83C40.33 7.00 40.11 7.04 39.66 7.14C39.66 7.14 39.62 7.21 39.62 7.32C39.62 7.38 39.62 7.45 39.66 7.50C39.66 7.50 40.00 7.53 40.18 7.55C40.88 7.62 40.89 8.23 40.89 9.34L40.89 10.68C40.89 11.24 40.89 12.18 40.82 12.43C40.71 12.85 40.60 13.27 39.76 13.47C39.76 13.47 39.73 13.52 39.73 13.58C39.73 13.65 39.76 13.75 39.82 13.82C40.57 13.72 41.24 13.71 41.66 13.71C41.89 13.71 42.46 13.75 42.92 13.75C42.97 13.66 42.97 13.59 42.97 13.54C42.97 13.41 42.92 13.31 42.92 13.31C42.63 13.31 42.35 13.31 42.14 13.27C42.01 13.26 41.96 11.70 41.96 11.06ZM41.61 4.76C41.92 4.65 42.35 4.30 42.53 4.06C42.45 3.75 42.17 3.36 41.85 3.12C41.57 3.23 41.12 3.57 40.89 3.84C41.02 4.17 41.27 4.52 41.61 4.76ZM47.80 12.98C46.00 12.98 45.40 11.24 45.40 9.79C47.78 9.56 50.25 8.99 50.25 8.99C50.26 8.93 50.27 8.88 50.27 8.82C50.27 8.67 50.19 8.57 50.19 8.57C49.88 8.55 49.83 8.51 49.80 8.39C49.38 6.94 48.01 6.58 47.24 6.58C45.88 6.89 44.25 7.94 44.25 10.35C44.25 12.40 45.46 13.99 47.11 13.99C47.91 13.99 48.41 13.82 48.54 13.72L50.05 12.66C50.02 12.43 49.83 12.36 49.83 12.36C49.27 12.75 48.64 12.98 47.80 12.98ZM46.35 7.28C46.58 7.14 46.86 7.14 47.00 7.14C48.19 7.14 48.75 8.55 48.75 8.62C48.75 8.67 48.73 8.68 48.68 8.71C48.30 8.83 47.89 8.93 47.28 9.04C46.75 9.13 45.79 9.21 45.46 9.21C45.51 8.55 45.72 7.71 46.35 7.28ZM55.30 7.45C55.34 7.60 55.50 8.37 55.52 8.54C55.58 8.55 55.65 8.57 55.72 8.57C55.82 8.57 55.89 8.55 55.94 8.51C56 7.94 56.10 7.17 56.17 6.94C55.83 6.80 54.92 6.58 54.25 6.58C53.17 6.58 51.79 7.08 51.79 8.54C51.79 9.52 52.53 10.11 53.14 10.40L54.19 10.91C54.32 10.98 55.36 11.35 55.36 12.26C55.36 13.10 54.70 13.44 53.97 13.44C53.23 13.44 52.68 13.05 52.56 12.92C52.30 12.63 52.18 12.12 52.07 11.84C52.02 11.82 51.97 11.82 51.94 11.82C51.83 11.82 51.74 11.86 51.66 11.91C51.77 12.52 51.88 13.26 51.91 13.66C52.22 13.80 53.12 13.99 53.90 13.99C55.20 13.99 56.45 13.24 56.45 11.91C56.45 10.68 55.26 10.05 54.85 9.86L53.76 9.34C53.30 9.11 52.86 8.68 52.86 8.18C52.86 7.45 53.40 7.08 54.08 7.08C54.80 7.08 55.20 7.36 55.30 7.45Z"></path></g><!----><g data-v-423bf9ae="" id="89b40713-b0d4-4824-9048-050f629e97ec" transform="matrix(1.0071960013657555,0,0,1.0071960013657555,104.47270781049136,-5.0382971228920255)" stroke="none" fill="white"><path d="M6.932 43.395c.129-.096.261-.194.422-.327l35.08-24.878c3.508-2.783 11.711-2.783 15.22 0l35.079 23.879c.138.114.254.205.366.295.041.394.066.794.066 1.203l.002-1.15h-.002v-5.341c0-3.478-1.479-6.437-4.434-8.871L57.653 7.326c-1.422-1.128-3.619-1.791-5.96-2.004h-3.298c-2.34.213-4.538.876-5.961 2.004L11.355 28.205c-2.954 2.433-4.433 5.392-4.433 8.871l-.09 6.396.09.104c0-.061.009-.12.01-.181zM54.633 67.592h-9.199c-5.189 0-7.784 2.596-7.784 7.666v19.42h24.648v-19.42c.001-5.07-2.595-7.666-7.665-7.666z"></path><path d="M92.731 48.568L57.652 24.689c-3.51-2.783-11.712-2.783-15.22 0L7.352 49.568a9.836 9.836 0 0 1-.432.334v35.343c0 5.189 4.281 9.434 9.513 9.434h15.965V72.756c0-7.23 3.701-10.932 11.1-10.932h13.116c7.231 0 10.933 3.701 10.933 10.932v21.922h16.105c5.232 0 9.514-4.244 9.514-9.434V48.916a18.863 18.863 0 0 1-.435-.348z"></path></g><!----></svg>