<svg id="Capa_1" enable-background="new 0 0 512 512" height="512" viewBox="0 0 512 512" width="512" xmlns="http://www.w3.org/2000/svg" xmlns:xlink="http://www.w3.org/1999/xlink"><linearGradient id="SVGID_1_" gradientUnits="userSpaceOnUse" x1="214.508" x2="342.508" y1="157.604" y2="521.603"><stop offset="0" stop-color="#c6d1ff"/><stop offset=".5834" stop-color="#e6d5f4"/><stop offset=".997" stop-color="#ffd9ec"/></linearGradient><linearGradient id="SVGID_2_" gradientUnits="userSpaceOnUse" x1="112.942" x2="112.942" y1="61.202" y2="189.738"><stop offset=".0028" stop-color="#ff7eb8" stop-opacity="0"/><stop offset="1" stop-color="#ff7eb8" stop-opacity=".6"/></linearGradient><g><g><path d="m501.873 161c-22.357-56.888-91.226-91.003-149.556-68.427-66.582 25.769-44.506 131.673-104.983 153.088-32.669 11.568-80.962-31.644-113.969-38.27-60.821-12.211-115.881 30.704-129.439 90.134-13.832 60.63 8.353 141.61 74.967 158.066 79.35 19.603 120.683-51.729 187.249-72.21 68.311-21.019 144.263 28.622 200.814-31.776 41.78-44.622 57.055-134.273 34.917-190.605z" fill="url(#SVGID_1_)"/></g><g><g><g fill="#2d58e0"><path d="m341.563 134.479c.499.157 1.005.232 1.502.232 2.125 0 4.097-1.365 4.769-3.5l2.458-7.808 25.19 9.881-1.362 28.287h10.647l.876-31.39c.104-2.143-1.172-4.111-3.168-4.895l-29.174-11.443 2.747-8.726c.829-2.634-.634-5.441-3.268-6.271-2.631-.828-5.441.635-6.271 3.269l-8.215 26.094c-.828 2.633.635 5.441 3.269 6.27z"/><path d="m141.529 235.786h-47.538c-2.757 0-5-2.243-5-5v-41.047h-10v41.047c0 8.271 6.729 15 15 15h47.538z"/><path d="m143.432 189.738h10v51.047h-10z"/></g><g><path d="m172.211 189.738h-118.537c-2.761 0-5-2.239-5-5v-118.536c0-2.761 2.239-5 5-5h118.537c2.762 0 5 2.239 5 5v118.537c0 2.761-2.239 4.999-5 4.999z" fill="#ffdbed"/><path d="m177.211 171.061h-10.85c-2.761 0-5-2.239-5-5v-80.846c0-2.761 2.239-5 5-5h10.85z" fill="#ffa8cf"/></g><g><g><path d="m118.066 296.294h-5.123c-8.863 0-16.047-7.185-16.047-16.047 0-8.863 7.185-16.047 16.047-16.047h5.123z" fill="#02ffb3"/><g><path d="m268.76 377.305s52.566-54.233 40.919-126.083c-.976-6.023-6.21-10.436-12.312-10.436h-155.474c-13.159 0-23.827 10.668-23.827 23.827v112.693h150.694z" fill="#ff5ba8"/><g><ellipse cx="414.164" cy="380.165" fill="#6583fe" rx="44.792" ry="44.792" transform="matrix(.23 -.973 .973 .23 -50.987 695.906)"/><path d="m458.774 384.099c.116-1.297.182-2.607.182-3.934 0-24.738-20.054-44.792-44.792-44.792s-44.792 20.054-44.792 44.792c0 1.327.067 2.637.182 3.934z" fill="#4369fd"/><circle cx="414.164" cy="380.165" fill="#d2deff" r="25.813"/><path d="m439.663 384.099c.198-1.284.315-2.594.315-3.934 0-14.256-11.557-25.813-25.813-25.813s-25.813 11.557-25.813 25.813c0 1.339.117 2.65.315 3.934z" fill="#b7c5ff"/><path d="m419.004 390.377c-4.766 2.199-10.412.118-12.611-4.648l-13.429-29.105 17.258-7.963 13.429 29.105c2.199 4.766.118 10.412-4.647 12.611z" fill="#ff7eb8"/><path d="m424.22 384.099c.526-2.042.384-4.268-.568-6.333l-13.429-29.105-17.258 7.963 12.677 27.475z" fill="#ff5ba8"/></g><g><ellipse cx="174.245" cy="380.165" fill="#6583fe" rx="44.792" ry="44.792" transform="matrix(.707 -.707 .707 .707 -217.782 234.558)"/><path d="m213.43 401.817c3.557-6.421 5.607-13.792 5.607-21.652 0-24.738-20.054-44.792-44.792-44.792s-44.792 20.054-44.792 44.792c0 7.86 2.05 15.231 5.607 21.652z" fill="#4369fd"/><circle cx="174.245" cy="380.165" fill="#d2deff" r="25.813"/><path d="m160.225 401.817h28.04c7.091-4.6 11.793-12.57 11.793-21.652 0-14.256-11.557-25.813-25.814-25.813-14.256 0-25.813 11.557-25.813 25.813.001 9.083 4.703 17.052 11.794 21.652z" fill="#b7c5ff"/></g><path d="m307.216 377.305c-6.611-57.354-50.36-101.666-103.348-101.666s-96.737 44.311-103.348 101.666z" fill="#ff7eb8"/><path d="m381.975 247.765-12.603 91.611h52.58c0-17.01-1.324-34.518-3.327-51.275-.787-6.586-4.03-12.629-9.085-16.923z" fill="#ffdbed"/><path d="m468.312 367.644c3.58 0 6.016-3.66 4.61-6.953-9.709-22.75-30.429-38.47-54.437-38.47-26.384 0-48.797 18.986-56.988 45.423z" fill="#ff7eb8"/><g><path d="m404.368 194.812c-24.232 0-44.59 18.215-47.264 42.3-3.521 31.703-7.087 69.579-7.087 69.579-3.645 34.556-32.597 60.614-67.344 60.614h-181.118c-5.326 0-9.977 4.019-10.321 9.334-.377 5.824 4.235 10.666 9.978 10.666h206.461c45.01 0 82.512-33.755 87.233-78.517z" fill="#ff5ba8"/></g><path d="m404.37 194.809-2.58 31.06h-18.63c-2.27 2.86-5.78 4.7-9.71 4.7-5.64 0-10.4-3.77-11.9-8.92 7.75-16 24.13-26.84 42.82-26.84z" fill="#fe2c8f"/><g><path d="m280.236 240.785h-144.332c-5.523 0-10-4.477-10-10 0-9.461 7.67-17.131 17.131-17.131h144.332c5.523 0 10 4.477 10 10 0 9.461-7.67 17.131-17.131 17.131z" fill="#6583fe"/><path d="m160.279 213.654h11.275v27.131h-11.275z" fill="#9fb0fe"/></g></g></g><g><g><path d="m403.26 211.859h-32.386c-13.887 0-25.144-11.257-25.144-25.144 0-13.887 11.258-25.144 25.144-25.144h32.386c5.523 0 10 4.477 10 10v30.289c0 5.522-4.477 9.999-10 9.999z" fill="#ff7eb8"/><path d="m403.26 161.57h-6.426v50.289h6.426c5.523 0 10-4.477 10-10v-30.289c0-5.523-4.477-10-10-10z" fill="#ffdbed"/></g><ellipse cx="363.448" cy="204.158" fill="#6583fe" rx="12.403" ry="12.403" transform="matrix(.707 -.707 .707 .707 -37.91 316.793)"/></g><g fill="#ff5ba8"><path d="m213.699 321.392h-44.036c-2.948 0-5.338-2.39-5.338-5.338 0-2.948 2.39-5.338 5.338-5.338h44.036c2.948 0 5.338 2.39 5.338 5.338 0 2.948-2.39 5.338-5.338 5.338z"/><path d="m213.699 337.5h-44.036c-2.948 0-5.338-2.39-5.338-5.338 0-2.948 2.39-5.338 5.338-5.338h44.036c2.948 0 5.338 2.39 5.338 5.338 0 2.948-2.39 5.338-5.338 5.338z"/><path d="m213.699 353.607h-44.036c-2.948 0-5.338-2.39-5.338-5.338 0-2.948 2.39-5.338 5.338-5.338h44.036c2.948 0 5.338 2.39 5.338 5.338 0 2.948-2.39 5.338-5.338 5.338z"/></g></g><g fill="#ff5ba8"><path d="m86.376 139.627h53.132c1.36 0 2.662-.555 3.605-1.535s1.445-2.303 1.392-3.662c-.606-15.306-11.898-27.621-26.562-29.932v-2.343c0-2.762-2.238-5-5-5s-5 2.238-5 5v2.343c-14.664 2.311-25.957 14.626-26.562 29.932-.054 1.359.448 2.682 1.392 3.662.941.98 2.243 1.535 3.603 1.535zm26.567-25.525c9.831 0 18.12 6.499 20.731 15.525h-41.464c2.612-9.026 10.901-15.525 20.733-15.525z"/><path d="m139.508 143.786h-53.132c-2.762 0-5 2.238-5 5s2.238 5 5 5h53.132c2.762 0 5-2.238 5-5s-2.238-5-5-5z"/></g></g><path d="m232.5 184.29c-1.28 0-2.559-.488-3.536-1.465l-5.964-5.963-5.964 5.964c-1.953 1.953-5.118 1.953-7.071 0-1.953-1.952-1.953-5.118 0-7.07l9.5-9.5c1.953-1.953 5.118-1.953 7.071 0l9.5 9.5c1.953 1.952 1.953 5.118 0 7.07-.977.976-2.256 1.464-3.536 1.464z" fill="#00eca2"/><path d="m360.779 72.536c-1.279 0-2.56-.488-3.535-1.465l-5.965-5.964-5.965 5.964c-1.951 1.953-5.119 1.953-7.07 0-1.953-1.952-1.953-5.118 0-7.07l9.5-9.5c1.951-1.953 5.119-1.953 7.07 0l9.5 9.5c1.953 1.952 1.953 5.118 0 7.07-.975.976-2.255 1.465-3.535 1.465z" fill="#ff7eb8"/><path d="m67.674 360.199c-1.28 0-2.559-.488-3.536-1.465l-5.964-5.964-5.964 5.964c-1.953 1.953-5.118 1.953-7.071 0-1.953-1.952-1.953-5.118 0-7.07l9.5-9.5c1.953-1.953 5.118-1.953 7.071 0l9.5 9.5c1.953 1.952 1.953 5.118 0 7.07-.977.976-2.256 1.465-3.536 1.465z" fill="#ff7eb8"/><path d="m351.279 438.345c-3.714 0-7.427-1.413-10.253-4.24-5.654-5.653-5.654-14.852 0-20.505 5.651-5.653 14.852-5.655 20.505 0 5.653 5.653 5.653 14.852 0 20.505-2.826 2.827-6.539 4.24-10.252 4.24zm0-18.99c-1.152 0-2.305.439-3.183 1.315-1.754 1.755-1.754 4.609 0 6.364 1.756 1.754 4.608 1.754 6.364 0 1.754-1.755 1.754-4.609 0-6.364-.877-.877-2.029-1.315-3.181-1.315z" fill="#00eca2"/><path d="m426.912 141.937c-3.714 0-7.427-1.413-10.253-4.24-5.654-5.653-5.654-14.852 0-20.505 5.651-5.653 14.852-5.655 20.505 0 5.653 5.653 5.653 14.852 0 20.505-2.826 2.827-6.539 4.24-10.252 4.24zm0-18.99c-1.152 0-2.305.438-3.183 1.315-1.754 1.755-1.754 4.609 0 6.364 1.755 1.753 4.607 1.755 6.364 0 1.754-1.755 1.754-4.609 0-6.364-.877-.877-2.03-1.315-3.181-1.315z" fill="#6583fe"/><circle cx="148.432" cy="268.079" fill="#ffa8cf" r="10.949"/></g><path d="m172.211 189.738h-118.537c-2.761 0-5-2.239-5-5v-118.536c0-2.761 2.239-5 5-5h118.537c2.762 0 5 2.239 5 5v118.537c0 2.761-2.239 4.999-5 4.999z" fill="url(#SVGID_2_)"/></g></svg>