<svg width="0" height="0" class="hidden">
  <symbol xmlns="http://www.w3.org/2000/svg" viewBox="0 0 505 505" id="bills">
    <circle cx="252.5" cy="252.5" r="252.5" fill="#84dbff"></circle>
    <path fill="#fff" d="M388.9 96.9l-19.4-19.5L350 96.9l-19.5-19.5L311 96.9l-19.5-19.5L272 96.9l-19.5-19.5L233 96.9l-19.5-19.5L194 96.9l-19.5-19.5L155 96.9l-19.5-19.5-19.4 19.5v311.2l19.4 19.5 19.5-19.5 19.5 19.5 19.5-19.5 19.5 19.5 19.5-19.5 19.5 19.5 19.5-19.5 19.5 19.5 19.5-19.5 19.5 19.5 19.5-19.5 19.5 19.5 19.4-19.5z"></path>
    <path d="M129.5 166h246.1v5H129.5zm0 174.3h246.1v5H129.5z" fill="#ced5e0"></path>
    <path d="M198.1 136.9c0 4-1.6 6.5-4.7 7.7l6.3 8.9h-6.8l-5.5-7.9h-3.9v7.9H178v-24.8h9.4c3.8 0 6.6.6 8.2 1.9 1.7 1.3 2.5 3.4 2.5 6.3zm-6.7 3c.7-.6 1-1.6 1-2.9 0-1.3-.4-2.3-1.1-2.7-.7-.5-1.9-.7-3.7-.7h-4.1v7.3h4c1.9-.1 3.2-.4 3.9-1zm30.2-11.2v4.9h-12.3v5.1h11.1v4.7h-11.1v5.1H222v4.9h-18.2v-24.8h17.8v.1zm16.7 19.9c2.7 0 4.9-1.1 6.7-3.2l3.5 3.6c-2.8 3.2-6.1 4.7-9.9 4.7-3.8 0-7-1.2-9.4-3.6-2.5-2.4-3.7-5.4-3.7-9.1 0-3.7 1.3-6.7 3.8-9.2s5.6-3.7 9.2-3.7c4.1 0 7.5 1.5 10.2 4.6l-3.4 3.9c-1.7-2.2-3.9-3.3-6.5-3.3-2.1 0-3.9.7-5.3 2-1.5 1.4-2.2 3.2-2.2 5.5s.7 4.1 2.1 5.5c1.2 1.6 2.9 2.3 4.9 2.3zm32.4-19.9v4.9h-12.3v5.1h11.1v4.7h-11.1v5.1h12.7v4.9h-18.2v-24.8h17.8v.1zm5.3 0h5.5v24.8H276v-24.8zm28.6 2.2c1.7 1.5 2.6 3.7 2.6 6.8s-.9 5.3-2.7 6.7c-1.8 1.4-4.5 2.1-8.2 2.1H293v6.9h-5.5v-24.8h8.7c3.9.1 6.7.8 8.4 2.3zm-4 9.8c.7-.7 1-1.8 1-3.3 0-1.4-.4-2.4-1.3-3s-2.2-.9-4-.9h-3.2v8.3h3.7c1.9 0 3.1-.4 3.8-1.1zm21.4-7.2v20h-5.5v-20h-7v-4.8H329v4.8h-7z" fill="#ff7058"></path>
    <path d="M145.1 191.3h74.3v6.7h-74.3zm0 12.8h52.8v6.7h-52.8zm0 38.7h74.3v6.7h-74.3zm0 12.8h52.8v6.7h-52.8zm0 38.6h74.3v6.7h-74.3zm0 12.8h52.8v6.7h-52.8zm184-115.7h25.1v6.7h-25.1zm0 51.5h25.1v6.7h-25.1zm0 51.4h25.1v6.7h-25.1z" fill="#e6e9ee"></path>
    <path d="M239.5 366v15.1h-4.2V366H230v-3.6h14.8v3.6h-5.3zm23.6 12.6c-1.9 1.8-4.2 2.8-7 2.8s-5.1-.9-7-2.8-2.8-4.2-2.8-6.9c0-2.8.9-5 2.8-6.9 1.9-1.8 4.2-2.8 7-2.8s5.1.9 7 2.8 2.8 4.1 2.8 6.9c0 2.7-1 5-2.8 6.9zm-1.5-6.9c0-1.7-.5-3.1-1.6-4.3-1.1-1.2-2.4-1.8-3.9-1.8-1.6 0-2.9.6-4 1.8-1.1 1.2-1.6 2.6-1.6 4.3 0 1.7.5 3.1 1.6 4.3 1.1 1.2 2.4 1.8 4 1.8s2.9-.6 3.9-1.8c1.1-1.2 1.6-2.6 1.6-4.3zm15.2-5.7v15.1h-4.2V366h-5.3v-3.6h14.8v3.6h-5.3zm20.4 15.2l-1.7-4h-7.8l-1.7 4h-4.4l8.1-18.7h4l8.1 18.7h-4.6zm-5.7-13.2l-2.4 5.4h4.7l-2.3-5.4zm12.3 13.2v-18.7h4.2v15h8v3.7h-12.2z" fill="#4cdbc4"></path>
  </symbol>
  <symbol xmlns="http://www.w3.org/2000/svg" viewBox="0 0 140 140" id="fun">
    <circle cx="70" cy="70" fill="#de594e" r="64"></circle>
    <path d="M133.798 74.86L101.2 42.262l-13.45-10.38a6.54 6.54 0 00-9.6 1.78l-8.3 13.65H38.81L63 77.662v26.46c-.03 0-.06 0-.09.01l-14.3 4.07c-.34.1-.57.34-.57.62 0 .129.06.242.144.344l-.012.004 24.757 24.756c32.367-1.459 58.455-26.956 60.869-59.066z" opacity=".1"></path>
    <path d="M66.82 58.062l-2.563-1.558 13.89-22.842a6.56 6.56 0 014.405-3.04 6.546 6.546 0 015.202 1.258l13.441 10.38-1.834 2.375-13.441-10.38a3.503 3.503 0 00-2.821-.683 3.516 3.516 0 00-2.39 1.648z" fill="#ededed"></path>
    <path d="M82.694 108.201l-14.299-4.068c-.03-.008-.062-.007-.092-.013V77.66L92.5 47.31H38.805l24.197 30.35v26.46c-.03.006-.063.005-.092.013l-14.299 4.068c-.343.098-.57.346-.57.622 0 .368.394.665.88.665h33.462c.487 0 .881-.297.881-.665 0-.276-.227-.524-.57-.622z" fill="#ededed"></path>
    <path d="M67.734 75.165L83.276 55.67H48.028L63.57 75.165z" fill="#feda6f"></path>
    <path d="M47.44 49.937l15.648 21.226h2.014L54.5 49.937z" fill="#fff" opacity=".25"></path>
  </symbol>
  <symbol xmlns="http://www.w3.org/2000/svg" viewBox="0 0 512 512" id="furniture">
    <circle cx="256" cy="256" r="256" fill="#ffd23c"></circle>
    <path d="M430.769 166.386H81.231v149.82l23.12 23.12.89 6.287 165.926 165.926C405.489 503.69 512 392.291 512 256c0-2.859-.064-5.703-.157-8.54l-81.074-81.074z" fill="#ffa50a"></path>
    <path fill="#67573d" d="M117.525 345.614h-12.284l-5.584-39.459h22.335z"></path>
    <path fill="#534531" d="M407.876 345.614h-12.284l-5.584-39.459h22.335z"></path>
    <path fill="#0091c8" d="M81.231 166.39h349.538v121.905H81.231z"></path>
    <path fill="#0073aa" d="M256 166.39h174.769v121.905H256z"></path>
    <path d="M115.85 229.66h108.266c17.609 0 31.884 14.275 31.884 31.884H115.85V229.66z" fill="#f0feff"></path>
    <path d="M256 261.543c0-17.609 14.275-31.884 31.884-31.884H396.15v31.884H256z" fill="#d0fbfd"></path>
    <path d="M430.769 166.386c-23.538 0-43.349 17.622-46.092 40.999l-6.356 54.158H133.679l-6.356-54.158c-2.743-23.378-22.554-40.999-46.092-40.999v149.82H430.77l-.001-149.82z" fill="#05cdff"></path>
    <path d="M430.769 166.386c-23.538 0-43.349 17.622-46.092 40.999l-6.356 54.158h-122.32v54.663H430.77l-.001-149.82z" fill="#41a0d7"></path>
  </symbol>
  <symbol xmlns="http://www.w3.org/2000/svg" viewBox="0 0 512 512" id="groceries">
    <path d="M512 256c0 141.387-114.613 256-256 256S0 397.387 0 256 114.613 0 256 0s256 114.613 256 256zm0 0" fill="#10bb66"></path>
    <path d="M511.984 257.086L355.902 101 256 271.742 101 332.29l9.336 9 15.367 62.313 107.363 107.363A258.868 258.868 0 00256 512c141.023 0 255.402-114.031 255.984-254.914zm0 0" fill="#0ca655"></path>
    <path d="M224.77 332.41L119.62 227.262c-24.789-24.79-24.789-65.121 0-89.907 24.785-24.789 65.121-24.789 89.906-.003L314.68 242.504zm0 0" fill="#fe9922"></path>
    <path d="M209.527 137.355c-24.789-24.789-65.12-24.789-89.906 0l150.106 150.102 44.953-44.953zm0 0" fill="#fe8722"></path>
    <path d="M389.203 289.906H256v-81.77c0-14.195 10.14-26.343 24.11-28.882a11.195 11.195 0 009.19-11.016V101h66.602v67.238a11.195 11.195 0 009.196 11.016c13.968 2.539 24.105 14.687 24.105 28.883zm0 0" fill="#00d7df"></path>
    <path d="M389.203 208.137c0-14.196-10.14-26.344-24.11-28.883a11.195 11.195 0 01-9.19-11.016V101h-33.301v188.906h66.601zm0 0" fill="#00b6bd"></path>
    <path d="M289.3 101h66.602v54.492h-66.601zm0 0" fill="#fd3019"></path>
    <path d="M322.602 101h33.3v54.492h-33.3zm0 0" fill="#e71e15"></path>
    <path d="M289.3 137.328h66.602v18.164h-66.601zm0 0" fill="#cd2a00"></path>
    <path d="M389.203 289.906h-66.601v-66.601h66.601zm0 0" fill="#fec478"></path>
    <path d="M367.566 411H144.434c-13.543 0-24.868-9.715-26.926-23.102l-11.352-73.773h299.688l-11.352 73.773C392.434 401.285 381.11 411 367.566 411zm0 0" fill="#664b34"></path>
    <path d="M256 314.125V411h111.566c13.543 0 24.868-9.715 26.926-23.102l11.352-73.773zm0 0" fill="#59422d"></path>
    <path d="M159.527 198.148h-18.164c0-21.53 17.52-39.05 39.051-39.05v18.164c-11.516 0-20.887 9.37-20.887 20.886zm28.828 28.829h-18.164c0-21.536 17.52-39.051 39.051-39.051v18.164c-11.515 0-20.887 9.37-20.887 20.887zm28.829 28.828H199.02c0-21.535 17.515-39.051 39.05-39.051v18.164c-11.515 0-20.886 9.367-20.886 20.887zm0 0" fill="#fedb41"></path>
    <path d="M411 332.29H101v-60.548h310zm0 0" fill="#896648"></path>
    <path d="M256 271.742h155v60.547H256zm0 0" fill="#73543a"></path>
    <path d="M322.602 137.328h33.3v18.164h-33.3zm0 0" fill="#ab2300"></path>
    <path d="M152.816 170.547l12.836 12.84c3.782-3.782 9.004-6.125 14.762-6.125v-18.164c-10.766 0-20.527 4.379-27.598 11.449zm28.824 28.828l12.84 12.84c3.782-3.781 9.004-6.125 14.762-6.125v-18.164c-10.765 0-20.527 4.379-27.601 11.449zm56.43 17.379c-10.765 0-20.53 4.379-27.601 11.45l12.84 12.839c3.78-3.781 9.004-6.125 14.761-6.125zm0 0" fill="#fcbf27"></path>
  </symbol>
</svg>