<svg width="0" height="0" class="hidden">
  <symbol xmlns="http://www.w3.org/2000/svg" viewBox="0 0 505 505" id="bills">
    <circle cx="252.5" cy="252.5" r="252.5" fill="#84dbff"></circle>
    <path fill="#fff" d="M388.9 96.9l-19.4-19.5L350 96.9l-19.5-19.5L311 96.9l-19.5-19.5L272 96.9l-19.5-19.5L233 96.9l-19.5-19.5L194 96.9l-19.5-19.5L155 96.9l-19.5-19.5-19.4 19.5v311.2l19.4 19.5 19.5-19.5 19.5 19.5 19.5-19.5 19.5 19.5 19.5-19.5 19.5 19.5 19.5-19.5 19.5 19.5 19.5-19.5 19.5 19.5 19.5-19.5 19.5 19.5 19.4-19.5z"></path>
    <path d="M129.5 166h246.1v5H129.5zm0 174.3h246.1v5H129.5z" fill="#ced5e0"></path>
    <path d="M198.1 136.9c0 4-1.6 6.5-4.7 7.7l6.3 8.9h-6.8l-5.5-7.9h-3.9v7.9H178v-24.8h9.4c3.8 0 6.6.6 8.2 1.9 1.7 1.3 2.5 3.4 2.5 6.3zm-6.7 3c.7-.6 1-1.6 1-2.9 0-1.3-.4-2.3-1.1-2.7-.7-.5-1.9-.7-3.7-.7h-4.1v7.3h4c1.9-.1 3.2-.4 3.9-1zm30.2-11.2v4.9h-12.3v5.1h11.1v4.7h-11.1v5.1H222v4.9h-18.2v-24.8h17.8v.1zm16.7 19.9c2.7 0 4.9-1.1 6.7-3.2l3.5 3.6c-2.8 3.2-6.1 4.7-9.9 4.7-3.8 0-7-1.2-9.4-3.6-2.5-2.4-3.7-5.4-3.7-9.1 0-3.7 1.3-6.7 3.8-9.2s5.6-3.7 9.2-3.7c4.1 0 7.5 1.5 10.2 4.6l-3.4 3.9c-1.7-2.2-3.9-3.3-6.5-3.3-2.1 0-3.9.7-5.3 2-1.5 1.4-2.2 3.2-2.2 5.5s.7 4.1 2.1 5.5c1.2 1.6 2.9 2.3 4.9 2.3zm32.4-19.9v4.9h-12.3v5.1h11.1v4.7h-11.1v5.1h12.7v4.9h-18.2v-24.8h17.8v.1zm5.3 0h5.5v24.8H276v-24.8zm28.6 2.2c1.7 1.5 2.6 3.7 2.6 6.8s-.9 5.3-2.7 6.7c-1.8 1.4-4.5 2.1-8.2 2.1H293v6.9h-5.5v-24.8h8.7c3.9.1 6.7.8 8.4 2.3zm-4 9.8c.7-.7 1-1.8 1-3.3 0-1.4-.4-2.4-1.3-3s-2.2-.9-4-.9h-3.2v8.3h3.7c1.9 0 3.1-.4 3.8-1.1zm21.4-7.2v20h-5.5v-20h-7v-4.8H329v4.8h-7z" fill="#ff7058"></path>
    <path d="M145.1 191.3h74.3v6.7h-74.3zm0 12.8h52.8v6.7h-52.8zm0 38.7h74.3v6.7h-74.3zm0 12.8h52.8v6.7h-52.8zm0 38.6h74.3v6.7h-74.3zm0 12.8h52.8v6.7h-52.8zm184-115.7h25.1v6.7h-25.1zm0 51.5h25.1v6.7h-25.1zm0 51.4h25.1v6.7h-25.1z" fill="#e6e9ee"></path>
    <path d="M239.5 366v15.1h-4.2V366H230v-3.6h14.8v3.6h-5.3zm23.6 12.6c-1.9 1.8-4.2 2.8-7 2.8s-5.1-.9-7-2.8-2.8-4.2-2.8-6.9c0-2.8.9-5 2.8-6.9 1.9-1.8 4.2-2.8 7-2.8s5.1.9 7 2.8 2.8 4.1 2.8 6.9c0 2.7-1 5-2.8 6.9zm-1.5-6.9c0-1.7-.5-3.1-1.6-4.3-1.1-1.2-2.4-1.8-3.9-1.8-1.6 0-2.9.6-4 1.8-1.1 1.2-1.6 2.6-1.6 4.3 0 1.7.5 3.1 1.6 4.3 1.1 1.2 2.4 1.8 4 1.8s2.9-.6 3.9-1.8c1.1-1.2 1.6-2.6 1.6-4.3zm15.2-5.7v15.1h-4.2V366h-5.3v-3.6h14.8v3.6h-5.3zm20.4 15.2l-1.7-4h-7.8l-1.7 4h-4.4l8.1-18.7h4l8.1 18.7h-4.6zm-5.7-13.2l-2.4 5.4h4.7l-2.3-5.4zm12.3 13.2v-18.7h4.2v15h8v3.7h-12.2z" fill="#4cdbc4"></path>
  </symbol>
  <symbol xmlns="http://www.w3.org/2000/svg" viewBox="0 0 140 140" id="fun">
    <circle cx="70" cy="70" fill="#de594e" r="64"></circle>
    <path d="M133.798 74.86L101.2 42.262l-13.45-10.38a6.54 6.54 0 00-9.6 1.78l-8.3 13.65H38.81L63 77.662v26.46c-.03 0-.06 0-.09.01l-14.3 4.07c-.34.1-.57.34-.57.62 0 .129.06.242.144.344l-.012.004 24.757 24.756c32.367-1.459 58.455-26.956 60.869-59.066z" opacity=".1"></path>
    <path d="M66.82 58.062l-2.563-1.558 13.89-22.842a6.56 6.56 0 014.405-3.04 6.546 6.546 0 015.202 1.258l13.441 10.38-1.834 2.375-13.441-10.38a3.503 3.503 0 00-2.821-.683 3.516 3.516 0 00-2.39 1.648z" fill="#ededed"></path>
    <path d="M82.694 108.201l-14.299-4.068c-.03-.008-.062-.007-.092-.013V77.66L92.5 47.31H38.805l24.197 30.35v26.46c-.03.006-.063.005-.092.013l-14.299 4.068c-.343.098-.57.346-.57.622 0 .368.394.665.88.665h33.462c.487 0 .881-.297.881-.665 0-.276-.227-.524-.57-.622z" fill="#ededed"></path>
    <path d="M67.734 75.165L83.276 55.67H48.028L63.57 75.165z" fill="#feda6f"></path>
    <path d="M47.44 49.937l15.648 21.226h2.014L54.5 49.937z" fill="#fff" opacity=".25"></path>
  </symbol>
  <symbol xmlns="http://www.w3.org/2000/svg" viewBox="0 0 512 512" id="furniture">
    <circle cx="256" cy="256" r="256" fill="#ffd23c"></circle>
    <path d="M430.769 166.386H81.231v149.82l23.12 23.12.89 6.287 165.926 165.926C405.489 503.69 512 392.291 512 256c0-2.859-.064-5.703-.157-8.54l-81.074-81.074z" fill="#ffa50a"></path>
    <path fill="#67573d" d="M117.525 345.614h-12.284l-5.584-39.459h22.335z"></path>
    <path fill="#534531" d="M407.876 345.614h-12.284l-5.584-39.459h22.335z"></path>
    <path fill="#0091c8" d="M81.231 166.39h349.538v121.905H81.231z"></path>
    <path fill="#0073aa" d="M256 166.39h174.769v121.905H256z"></path>
    <path d="M115.85 229.66h108.266c17.609 0 31.884 14.275 31.884 31.884H115.85V229.66z" fill="#f0feff"></path>
    <path d="M256 261.543c0-17.609 14.275-31.884 31.884-31.884H396.15v31.884H256z" fill="#d0fbfd"></path>
    <path d="M430.769 166.386c-23.538 0-43.349 17.622-46.092 40.999l-6.356 54.158H133.679l-6.356-54.158c-2.743-23.378-22.554-40.999-46.092-40.999v149.82H430.77l-.001-149.82z" fill="#05cdff"></path>
    <path d="M430.769 166.386c-23.538 0-43.349 17.622-46.092 40.999l-6.356 54.158h-122.32v54.663H430.77l-.001-149.82z" fill="#41a0d7"></path>
  </symbol>
  <symbol xmlns="http://www.w3.org/2000/svg" viewBox="0 0 512 512" id="groceries">
    <path d="M512 256c0 141.387-114.613 256-256 256S0 397.387 0 256 114.613 0 256 0s256 114.613 256 256zm0 0" fill="#10bb66"></path>
    <path d="M511.984 257.086L355.902 101 256 271.742 101 332.29l9.336 9 15.367 62.313 107.363 107.363A258.868 258.868 0 00256 512c141.023 0 255.402-114.031 255.984-254.914zm0 0" fill="#0ca655"></path>
    <path d="M224.77 332.41L119.62 227.262c-24.789-24.79-24.789-65.121 0-89.907 24.785-24.789 65.121-24.789 89.906-.003L314.68 242.504zm0 0" fill="#fe9922"></path>
    <path d="M209.527 137.355c-24.789-24.789-65.12-24.789-89.906 0l150.106 150.102 44.953-44.953zm0 0" fill="#fe8722"></path>
    <path d="M389.203 289.906H256v-81.77c0-14.195 10.14-26.343 24.11-28.882a11.195 11.195 0 009.19-11.016V101h66.602v67.238a11.195 11.195 0 009.196 11.016c13.968 2.539 24.105 14.687 24.105 28.883zm0 0" fill="#00d7df"></path>
    <path d="M389.203 208.137c0-14.196-10.14-26.344-24.11-28.883a11.195 11.195 0 01-9.19-11.016V101h-33.301v188.906h66.601zm0 0" fill="#00b6bd"></path>
    <path d="M289.3 101h66.602v54.492h-66.601zm0 0" fill="#fd3019"></path>
    <path d="M322.602 101h33.3v54.492h-33.3zm0 0" fill="#e71e15"></path>
    <path d="M289.3 137.328h66.602v18.164h-66.601zm0 0" fill="#cd2a00"></path>
    <path d="M389.203 289.906h-66.601v-66.601h66.601zm0 0" fill="#fec478"></path>
    <path d="M367.566 411H144.434c-13.543 0-24.868-9.715-26.926-23.102l-11.352-73.773h299.688l-11.352 73.773C392.434 401.285 381.11 411 367.566 411zm0 0" fill="#664b34"></path>
    <path d="M256 314.125V411h111.566c13.543 0 24.868-9.715 26.926-23.102l11.352-73.773zm0 0" fill="#59422d"></path>
    <path d="M159.527 198.148h-18.164c0-21.53 17.52-39.05 39.051-39.05v18.164c-11.516 0-20.887 9.37-20.887 20.886zm28.828 28.829h-18.164c0-21.536 17.52-39.051 39.051-39.051v18.164c-11.515 0-20.887 9.37-20.887 20.887zm28.829 28.828H199.02c0-21.535 17.515-39.051 39.05-39.051v18.164c-11.515 0-20.886 9.367-20.886 20.887zm0 0" fill="#fedb41"></path>
    <path d="M411 332.29H101v-60.548h310zm0 0" fill="#896648"></path>
    <path d="M256 271.742h155v60.547H256zm0 0" fill="#73543a"></path>
    <path d="M322.602 137.328h33.3v18.164h-33.3zm0 0" fill="#ab2300"></path>
    <path d="M152.816 170.547l12.836 12.84c3.782-3.782 9.004-6.125 14.762-6.125v-18.164c-10.766 0-20.527 4.379-27.598 11.449zm28.824 28.828l12.84 12.84c3.782-3.781 9.004-6.125 14.762-6.125v-18.164c-10.765 0-20.527 4.379-27.601 11.449zm56.43 17.379c-10.765 0-20.53 4.379-27.601 11.45l12.84 12.839c3.78-3.781 9.004-6.125 14.761-6.125zm0 0" fill="#fcbf27"></path>
  </symbol>

  <symbol id="delivery" enable-background="new 0 0 512 512" xmlns="http://www.w3.org/2000/svg" xmlns:xlink="http://www.w3.org/1999/xlink" viewBox="0 0 512 512">
    <linearGradient id="SVGID_1_" gradientUnits="userSpaceOnUse" x1="214.508" x2="342.508" y1="157.604" y2="521.603">
      <stop offset="0" stop-color="#c6d1ff"></stop>
      <stop offset=".5834" stop-color="#e6d5f4"></stop>
      <stop offset=".997" stop-color="#ffd9ec"></stop>
    </linearGradient>
    <linearGradient id="SVGID_2_" gradientUnits="userSpaceOnUse" x1="112.942" x2="112.942" y1="61.202" y2="189.738">
      <stop offset=".0028" stop-color="#ff7eb8" stop-opacity="0"></stop>
      <stop offset="1" stop-color="#ff7eb8" stop-opacity=".6"></stop>
    </linearGradient>
    <g>
      <g>
        <path d="m501.873 161c-22.357-56.888-91.226-91.003-149.556-68.427-66.582 25.769-44.506 131.673-104.983 153.088-32.669 11.568-80.962-31.644-113.969-38.27-60.821-12.211-115.881 30.704-129.439 90.134-13.832 60.63 8.353 141.61 74.967 158.066 79.35 19.603 120.683-51.729 187.249-72.21 68.311-21.019 144.263 28.622 200.814-31.776 41.78-44.622 57.055-134.273 34.917-190.605z" fill="url(#SVGID_1_)"></path>
      </g>
      <g>
        <g>
          <g fill="#2d58e0">
            <path d="m341.563 134.479c.499.157 1.005.232 1.502.232 2.125 0 4.097-1.365 4.769-3.5l2.458-7.808 25.19 9.881-1.362 28.287h10.647l.876-31.39c.104-2.143-1.172-4.111-3.168-4.895l-29.174-11.443 2.747-8.726c.829-2.634-.634-5.441-3.268-6.271-2.631-.828-5.441.635-6.271 3.269l-8.215 26.094c-.828 2.633.635 5.441 3.269 6.27z"></path>
            <path d="m141.529 235.786h-47.538c-2.757 0-5-2.243-5-5v-41.047h-10v41.047c0 8.271 6.729 15 15 15h47.538z"></path>
            <path d="m143.432 189.738h10v51.047h-10z"></path>
          </g>
          <g>
            <path d="m172.211 189.738h-118.537c-2.761 0-5-2.239-5-5v-118.536c0-2.761 2.239-5 5-5h118.537c2.762 0 5 2.239 5 5v118.537c0 2.761-2.239 4.999-5 4.999z" fill="#ffdbed"></path>
            <path d="m177.211 171.061h-10.85c-2.761 0-5-2.239-5-5v-80.846c0-2.761 2.239-5 5-5h10.85z" fill="#ffa8cf"></path>
          </g>
          <g>
            <g>
              <path d="m118.066 296.294h-5.123c-8.863 0-16.047-7.185-16.047-16.047 0-8.863 7.185-16.047 16.047-16.047h5.123z" fill="#02ffb3"></path>
              <g>
                <path d="m268.76 377.305s52.566-54.233 40.919-126.083c-.976-6.023-6.21-10.436-12.312-10.436h-155.474c-13.159 0-23.827 10.668-23.827 23.827v112.693h150.694z" fill="#ff5ba8"></path>
                <g>
                  <ellipse cx="414.164" cy="380.165" fill="#6583fe" rx="44.792" ry="44.792" transform="matrix(.23 -.973 .973 .23 -50.987 695.906)"></ellipse>
                  <path d="m458.774 384.099c.116-1.297.182-2.607.182-3.934 0-24.738-20.054-44.792-44.792-44.792s-44.792 20.054-44.792 44.792c0 1.327.067 2.637.182 3.934z" fill="#4369fd"></path>
                  <circle cx="414.164" cy="380.165" fill="#d2deff" r="25.813"></circle>
                  <path d="m439.663 384.099c.198-1.284.315-2.594.315-3.934 0-14.256-11.557-25.813-25.813-25.813s-25.813 11.557-25.813 25.813c0 1.339.117 2.65.315 3.934z" fill="#b7c5ff"></path>
                  <path d="m419.004 390.377c-4.766 2.199-10.412.118-12.611-4.648l-13.429-29.105 17.258-7.963 13.429 29.105c2.199 4.766.118 10.412-4.647 12.611z" fill="#ff7eb8"></path>
                  <path d="m424.22 384.099c.526-2.042.384-4.268-.568-6.333l-13.429-29.105-17.258 7.963 12.677 27.475z" fill="#ff5ba8"></path>
                </g>
                <g>
                  <ellipse cx="174.245" cy="380.165" fill="#6583fe" rx="44.792" ry="44.792" transform="matrix(.707 -.707 .707 .707 -217.782 234.558)"></ellipse>
                  <path d="m213.43 401.817c3.557-6.421 5.607-13.792 5.607-21.652 0-24.738-20.054-44.792-44.792-44.792s-44.792 20.054-44.792 44.792c0 7.86 2.05 15.231 5.607 21.652z" fill="#4369fd"></path>
                  <circle cx="174.245" cy="380.165" fill="#d2deff" r="25.813"></circle>
                  <path d="m160.225 401.817h28.04c7.091-4.6 11.793-12.57 11.793-21.652 0-14.256-11.557-25.813-25.814-25.813-14.256 0-25.813 11.557-25.813 25.813.001 9.083 4.703 17.052 11.794 21.652z" fill="#b7c5ff"></path>
                </g>
                <path d="m307.216 377.305c-6.611-57.354-50.36-101.666-103.348-101.666s-96.737 44.311-103.348 101.666z" fill="#ff7eb8"></path>
                <path d="m381.975 247.765-12.603 91.611h52.58c0-17.01-1.324-34.518-3.327-51.275-.787-6.586-4.03-12.629-9.085-16.923z" fill="#ffdbed"></path>
                <path d="m468.312 367.644c3.58 0 6.016-3.66 4.61-6.953-9.709-22.75-30.429-38.47-54.437-38.47-26.384 0-48.797 18.986-56.988 45.423z" fill="#ff7eb8"></path>
                <g>
                  <path d="m404.368 194.812c-24.232 0-44.59 18.215-47.264 42.3-3.521 31.703-7.087 69.579-7.087 69.579-3.645 34.556-32.597 60.614-67.344 60.614h-181.118c-5.326 0-9.977 4.019-10.321 9.334-.377 5.824 4.235 10.666 9.978 10.666h206.461c45.01 0 82.512-33.755 87.233-78.517z" fill="#ff5ba8"></path>
                </g>
                <path d="m404.37 194.809-2.58 31.06h-18.63c-2.27 2.86-5.78 4.7-9.71 4.7-5.64 0-10.4-3.77-11.9-8.92 7.75-16 24.13-26.84 42.82-26.84z" fill="#fe2c8f"></path>
                <g>
                  <path d="m280.236 240.785h-144.332c-5.523 0-10-4.477-10-10 0-9.461 7.67-17.131 17.131-17.131h144.332c5.523 0 10 4.477 10 10 0 9.461-7.67 17.131-17.131 17.131z" fill="#6583fe"></path>
                  <path d="m160.279 213.654h11.275v27.131h-11.275z" fill="#9fb0fe"></path>
                </g>
              </g>
            </g>
            <g>
              <g>
                <path d="m403.26 211.859h-32.386c-13.887 0-25.144-11.257-25.144-25.144 0-13.887 11.258-25.144 25.144-25.144h32.386c5.523 0 10 4.477 10 10v30.289c0 5.522-4.477 9.999-10 9.999z" fill="#ff7eb8"></path>
                <path d="m403.26 161.57h-6.426v50.289h6.426c5.523 0 10-4.477 10-10v-30.289c0-5.523-4.477-10-10-10z" fill="#ffdbed"></path>
              </g>
              <ellipse cx="363.448" cy="204.158" fill="#6583fe" rx="12.403" ry="12.403" transform="matrix(.707 -.707 .707 .707 -37.91 316.793)"></ellipse>
            </g>
            <g fill="#ff5ba8">
              <path d="m213.699 321.392h-44.036c-2.948 0-5.338-2.39-5.338-5.338 0-2.948 2.39-5.338 5.338-5.338h44.036c2.948 0 5.338 2.39 5.338 5.338 0 2.948-2.39 5.338-5.338 5.338z"></path>
              <path d="m213.699 337.5h-44.036c-2.948 0-5.338-2.39-5.338-5.338 0-2.948 2.39-5.338 5.338-5.338h44.036c2.948 0 5.338 2.39 5.338 5.338 0 2.948-2.39 5.338-5.338 5.338z"></path>
              <path d="m213.699 353.607h-44.036c-2.948 0-5.338-2.39-5.338-5.338 0-2.948 2.39-5.338 5.338-5.338h44.036c2.948 0 5.338 2.39 5.338 5.338 0 2.948-2.39 5.338-5.338 5.338z"></path>
            </g>
          </g>
          <g fill="#ff5ba8">
            <path d="m86.376 139.627h53.132c1.36 0 2.662-.555 3.605-1.535s1.445-2.303 1.392-3.662c-.606-15.306-11.898-27.621-26.562-29.932v-2.343c0-2.762-2.238-5-5-5s-5 2.238-5 5v2.343c-14.664 2.311-25.957 14.626-26.562 29.932-.054 1.359.448 2.682 1.392 3.662.941.98 2.243 1.535 3.603 1.535zm26.567-25.525c9.831 0 18.12 6.499 20.731 15.525h-41.464c2.612-9.026 10.901-15.525 20.733-15.525z"></path>
            <path d="m139.508 143.786h-53.132c-2.762 0-5 2.238-5 5s2.238 5 5 5h53.132c2.762 0 5-2.238 5-5s-2.238-5-5-5z"></path>
          </g>
        </g>
        <path d="m232.5 184.29c-1.28 0-2.559-.488-3.536-1.465l-5.964-5.963-5.964 5.964c-1.953 1.953-5.118 1.953-7.071 0-1.953-1.952-1.953-5.118 0-7.07l9.5-9.5c1.953-1.953 5.118-1.953 7.071 0l9.5 9.5c1.953 1.952 1.953 5.118 0 7.07-.977.976-2.256 1.464-3.536 1.464z" fill="#00eca2"></path>
        <path d="m360.779 72.536c-1.279 0-2.56-.488-3.535-1.465l-5.965-5.964-5.965 5.964c-1.951 1.953-5.119 1.953-7.07 0-1.953-1.952-1.953-5.118 0-7.07l9.5-9.5c1.951-1.953 5.119-1.953 7.07 0l9.5 9.5c1.953 1.952 1.953 5.118 0 7.07-.975.976-2.255 1.465-3.535 1.465z" fill="#ff7eb8"></path>
        <path d="m67.674 360.199c-1.28 0-2.559-.488-3.536-1.465l-5.964-5.964-5.964 5.964c-1.953 1.953-5.118 1.953-7.071 0-1.953-1.952-1.953-5.118 0-7.07l9.5-9.5c1.953-1.953 5.118-1.953 7.071 0l9.5 9.5c1.953 1.952 1.953 5.118 0 7.07-.977.976-2.256 1.465-3.536 1.465z" fill="#ff7eb8"></path>
        <path d="m351.279 438.345c-3.714 0-7.427-1.413-10.253-4.24-5.654-5.653-5.654-14.852 0-20.505 5.651-5.653 14.852-5.655 20.505 0 5.653 5.653 5.653 14.852 0 20.505-2.826 2.827-6.539 4.24-10.252 4.24zm0-18.99c-1.152 0-2.305.439-3.183 1.315-1.754 1.755-1.754 4.609 0 6.364 1.756 1.754 4.608 1.754 6.364 0 1.754-1.755 1.754-4.609 0-6.364-.877-.877-2.029-1.315-3.181-1.315z" fill="#00eca2"></path>
        <path d="m426.912 141.937c-3.714 0-7.427-1.413-10.253-4.24-5.654-5.653-5.654-14.852 0-20.505 5.651-5.653 14.852-5.655 20.505 0 5.653 5.653 5.653 14.852 0 20.505-2.826 2.827-6.539 4.24-10.252 4.24zm0-18.99c-1.152 0-2.305.438-3.183 1.315-1.754 1.755-1.754 4.609 0 6.364 1.755 1.753 4.607 1.755 6.364 0 1.754-1.755 1.754-4.609 0-6.364-.877-.877-2.03-1.315-3.181-1.315z" fill="#6583fe"></path>
        <circle cx="148.432" cy="268.079" fill="#ffa8cf" r="10.949"></circle>
      </g>
      <path d="m172.211 189.738h-118.537c-2.761 0-5-2.239-5-5v-118.536c0-2.761 2.239-5 5-5h118.537c2.762 0 5 2.239 5 5v118.537c0 2.761-2.239 4.999-5 4.999z" fill="url(#SVGID_2_)"></path>
    </g>
  </symbol>
</svg>
