<svg enable-background="new 0 0 140 140" height="512" viewBox="0 0 140 140" width="512" xmlns="http://www.w3.org/2000/svg"><circle cx="70" cy="70" fill="#de594e" r="64"/><path d="m133.7976227 74.8601532-32.5979538-32.5981407-13.4499512-10.3798828c-1.4700317-1.1401367-3.3600464-1.6000977-5.2000122-1.2600098-1.8300171.3398438-3.4400024 1.4499512-4.4000244 3.0397949l-8.2999878 13.6501465h-31.0399818l24.1900024 30.3498497v26.4602051c-.0300293 0-.0599976 0-.0900269.0100098l-14.2999878 4.0698242c-.3400269.1000977-.5700073.3400879-.5700073.6201172 0 .1289062.0611572.2421875.1445923.3442383l-.0120239.003418 24.7562904 24.7563477c32.3671265-1.4589845 58.4553147-26.9565431 60.869072-59.0659181z" opacity=".1"/><path d="m66.8192749 58.0622215-2.5625-1.5585938 13.8896484-22.8417969c.9677734-1.5917969 2.5742188-2.7001953 4.4052734-3.0390625 1.8359375-.3427734 3.7285156.1181641 5.2021484 1.2568359l13.4414062 10.3808594-1.8339844 2.375-13.4414061-10.3808593c-.8115234-.6269531-1.8066406-.8701172-2.8212891-.6826172-1.0078125.1875-1.8564453.7724609-2.3896484 1.6484375z" fill="#ededed"/><path d="m82.6941528 108.2013855-14.2988281-4.0683594c-.02948-.0083008-.0618286-.0068359-.0922241-.0126953v-26.4602051l24.1972656-30.351078h-53.6956177l24.1972656 30.351078v26.4602051c-.0303955.0058594-.0627441.0043945-.0922241.0126953l-14.2988281 4.0683594c-.3429565.0975342-.5700073.3453369-.5700073.6219482 0 .3671875.3942871.6647949.8807373.6647949h16.6729736.1158447 16.6729126c.4864502 0 .8807983-.2976074.8807983-.6647949.0000001-.2766113-.2271117-.524414-.5700683-.6219482z" fill="#ededed"/><path d="m67.734375 75.1654968 15.5419922-19.495121h-35.248169l15.5419922 19.495121z" fill="#feda6f"/><path d="m47.4391327 49.9369087 15.6487236 21.22649h2.0141945l-10.6026688-21.22649z" fill="#fff" opacity=".25"/></svg>