<?xml version="1.0" encoding="iso-8859-1"?>
<!-- Generator: Adobe Illustrator 19.0.0, SVG Export Plug-In . SVG Version: 6.00 Build 0)  -->
<svg version="1.1" id="Capa_1" xmlns="http://www.w3.org/2000/svg" xmlns:xlink="http://www.w3.org/1999/xlink" x="0px" y="0px"
	 viewBox="0 0 512 512" style="enable-background:new 0 0 512 512;" xml:space="preserve">
<circle style="fill:#FFD23C;" cx="256" cy="256" r="256"/>
<path style="fill:#FFA50A;" d="M430.769,166.386H256H81.231l0,0v149.82l23.12,23.12l0.89,6.287l165.926,165.926
	C405.489,503.69,512,392.291,512,256c0-2.859-0.064-5.703-0.157-8.54L430.769,166.386z"/>
<polygon style="fill:#67573D;" points="117.525,345.614 105.241,345.614 99.657,306.155 121.992,306.155 "/>
<polygon style="fill:#534531;" points="407.876,345.614 395.592,345.614 390.008,306.155 412.343,306.155 "/>
<rect x="81.231" y="166.39" style="fill:#0091C8;" width="349.538" height="121.905"/>
<rect x="256" y="166.39" style="fill:#0073AA;" width="174.769" height="121.905"/>
<path style="fill:#F0FEFF;" d="M115.85,229.66h108.266c17.609,0,31.884,14.275,31.884,31.884H115.85V229.66z"/>
<path style="fill:#D0FBFD;" d="M256,261.543c0-17.609,14.275-31.884,31.884-31.884H396.15v31.884H256z"/>
<path style="fill:#05CDFF;" d="M430.769,166.386c-23.538,0-43.349,17.622-46.092,40.999l-6.356,54.158H133.679l-6.356-54.158
	c-2.743-23.378-22.554-40.999-46.092-40.999v149.82H430.77L430.769,166.386z"/>
<path style="fill:#41A0D7;" d="M430.769,166.386c-23.538,0-43.349,17.622-46.092,40.999l-6.356,54.158H256.001v54.663H430.77
	L430.769,166.386z"/>
<g>
</g>
<g>
</g>
<g>
</g>
<g>
</g>
<g>
</g>
<g>
</g>
<g>
</g>
<g>
</g>
<g>
</g>
<g>
</g>
<g>
</g>
<g>
</g>
<g>
</g>
<g>
</g>
<g>
</g>
</svg>
