<svg height="512pt" viewBox="0 0 512 512" width="512pt" xmlns="http://www.w3.org/2000/svg"><path d="m512 256c0 141.386719-114.613281 256-256 256s-256-114.613281-256-256 114.613281-256 256-256 256 114.613281 256 256zm0 0" fill="#10bb66"/><path d="m511.984375 257.085938-156.082031-156.085938-99.902344 170.742188-155 60.546874 9.335938 9 15.367187 62.3125 107.363281 107.363282c7.558594.671875 15.203125 1.035156 22.933594 1.035156 141.023438 0 255.402344-114.03125 255.984375-254.914062zm0 0" fill="#0ca655"/><path d="m224.769531 332.410156-105.148437-105.148437c-24.789063-24.789063-24.789063-65.121094 0-89.90625 24.785156-24.789063 65.121094-24.789063 89.90625-.003907l105.152344 105.152344zm0 0" fill="#fe9922"/><path d="m209.527344 137.355469c-24.789063-24.789063-65.121094-24.789063-89.90625 0l150.105468 150.101562 44.953126-44.953125zm0 0" fill="#fe8722"/><path d="m389.203125 289.90625h-133.203125v-81.769531c0-14.195313 10.140625-26.34375 24.109375-28.882813 5.324219-.972656 9.191406-5.601562 9.191406-11.015625v-67.238281h66.601563v67.238281c0 5.414063 3.867187 10.042969 9.195312 11.015625 13.96875 2.539063 24.105469 14.6875 24.105469 28.882813zm0 0" fill="#00d7df"/><path d="m389.203125 208.136719c0-14.195313-10.140625-26.34375-24.109375-28.882813-5.324219-.972656-9.191406-5.601562-9.191406-11.015625v-67.238281h-33.300782v188.90625h66.601563zm0 0" fill="#00b6bd"/><path d="m289.300781 101h66.601563v54.492188h-66.601563zm0 0" fill="#fd3019"/><path d="m322.601562 101h33.300782v54.492188h-33.300782zm0 0" fill="#e71e15"/><path d="m289.300781 137.328125h66.601563v18.164063h-66.601563zm0 0" fill="#cd2a00"/><path d="m389.203125 289.90625h-66.601563v-66.601562h66.601563zm0 0" fill="#fec478"/><path d="m367.566406 411h-223.132812c-13.542969 0-24.867188-9.714844-26.925782-23.101562l-11.351562-73.773438h299.6875l-11.351562 73.773438c-2.058594 13.386718-13.382813 23.101562-26.925782 23.101562zm0 0" fill="#664b34"/><path d="m256 314.125v96.875h111.566406c13.542969 0 24.867188-9.714844 26.925782-23.101562l11.351562-73.773438zm0 0" fill="#59422d"/><g fill="#fedb41"><path d="m159.527344 198.148438h-18.164063c0-21.53125 17.519531-39.050782 39.050781-39.050782v18.164063c-11.515624 0-20.886718 9.371093-20.886718 20.886719zm0 0"/><path d="m188.355469 226.976562h-18.164063c0-21.535156 17.519532-39.050781 39.050782-39.050781v18.164063c-11.515626 0-20.886719 9.371094-20.886719 20.886718zm0 0"/><path d="m217.183594 255.804688h-18.164063c0-21.535157 17.515625-39.050782 39.050781-39.050782v18.164063c-11.515624 0-20.886718 9.367187-20.886718 20.886719zm0 0"/></g><path d="m411 332.289062h-310v-60.546874h310zm0 0" fill="#896648"/><path d="m256 271.742188h155v60.546874h-155zm0 0" fill="#73543a"/><path d="m322.601562 137.328125h33.300782v18.164063h-33.300782zm0 0" fill="#ab2300"/><path d="m152.816406 170.546875 12.835938 12.839844c3.78125-3.78125 9.003906-6.125 14.761718-6.125v-18.164063c-10.765624 0-20.527343 4.378906-27.597656 11.449219zm0 0" fill="#fcbf27"/><path d="m181.640625 199.375 12.839844 12.839844c3.78125-3.78125 9.003906-6.125 14.761719-6.125v-18.164063c-10.765626 0-20.527344 4.378907-27.601563 11.449219zm0 0" fill="#fcbf27"/><path d="m238.070312 216.753906c-10.765624 0-20.53125 4.378906-27.601562 11.449219l12.839844 12.839844c3.78125-3.78125 9.003906-6.125 14.761718-6.125zm0 0" fill="#fcbf27"/></svg>